<svg xmlns="http://www.w3.org/2000/svg" xmlns:xlink="http://www.w3.org/1999/xlink" xmlns:fi="http://pattern.flaticon.com/" x="0" y="0" width="1280" height="720" viewBox="0 0 1280 720"><rect x="0px" y="0px" width="100%" height="100%" opacity="1" fill="#0a1931"/><defs><g transform="matrix(0.19668173200515 0.05270071125673444 -0.05270071125673444 0.19668173200515 -31.819804974452225 -55.11351934992885)" id="L1_114"><path d="M432,8.329H10c-5.523,0-10,4.478-10,10v200.149c0,5.522,4.477,10,10,10h422c5.523,0,10-4.478,10-10V18.329   C442,12.806,437.523,8.329,432,8.329z M422,208.478H20V28.329h402V208.478z" fill="#ebebeb"/><path d="M432,240.671c-5.523,0-10,4.478-10,10v7.807h-64.4v-7.807c0-5.522-4.477-10-10-10s-10,4.478-10,10v7.807h-64.4v-7.807   c0-5.522-4.477-10-10-10s-10,4.478-10,10v7.807h-64.4v-7.807c0-5.522-4.477-10-10-10s-10,4.478-10,10v7.807h-64.4v-7.807   c0-5.522-4.477-10-10-10s-10,4.478-10,10v7.807H20v-7.807c0-5.522-4.477-10-10-10s-10,4.478-10,10v17.807c0,5.522,4.477,10,10,10   h176v145.193c0,5.522,4.477,10,10,10s10-4.478,10-10V278.478h30v145.193c0,5.522,4.477,10,10,10s10-4.478,10-10V278.478h176   c5.523,0,10-4.478,10-10v-17.807C442,245.149,437.523,240.671,432,240.671z" fill="#ebebeb"/></g><g transform="matrix(0.049914147704839706 0 0 0.049914147704839706 78.5 339.9999996222318)" id="L1_115"><path d="M387.886,206.794c1.412,1.06,3.102,1.601,4.803,1.601c1.219,0,2.444-0.278,3.576-0.844c2.71-1.354,4.423-4.125,4.423-7.156   v-32.134c0-2.518-1.185-4.888-3.198-6.399l-37.15-27.879c0.004-0.102,0.015-0.203,0.015-0.306v-68.75c0-4.418-3.582-8-8-8h-55.417   c-4.418,0-8,3.582-8,8v15.474l-83.448-62.623c-2.846-2.135-6.758-2.135-9.604,0l-192,144.083c-2.014,1.511-3.198,3.881-3.198,6.399   v32.134c0,3.031,1.713,5.801,4.423,7.156c2.71,1.355,5.954,1.063,8.379-0.757l3.198-2.4v164.117H8c-4.418,0-8,3.582-8,8   c0,4.418,3.582,8,8,8h384.667c4.418,0,8-3.582,8-8c0-4.418-3.582-8-8-8h-7.979V204.393L387.886,206.794z M304.938,72.927h39.417   v49.061l-39.417-29.58V72.927z M16.688,172.259l184-138.08l184,138.08v12.131L205.489,49.913c-1.423-1.068-3.112-1.602-4.802-1.602   s-3.379,0.534-4.802,1.602L16.688,184.39V172.259z M232.04,368.511h-63.413c0.026-0.261,0.04-0.525,0.04-0.792V233.261H232v134.458   C232,367.986,232.014,368.25,232.04,368.511z M368.688,194.104v174.406H247.96c0.026-0.261,0.04-0.525,0.04-0.792V225.261   c0-4.418-3.582-8-8-8h-79.333c-4.418,0-8,3.582-8,8v142.458c0,0.267,0.014,0.531,0.04,0.792H32.688V194.104   c0-0.547-0.056-1.081-0.16-1.598l168.16-126.193l168.16,126.193C368.743,193.023,368.688,193.557,368.688,194.104z" fill="#ffffff"/><path d="M184.827,296.403c-2.1,0-4.16,0.86-5.649,2.34c-1.49,1.49-2.341,3.56-2.341,5.66c0,2.11,0.851,4.17,2.341,5.66   c1.489,1.49,3.55,2.34,5.649,2.34c2.11,0,4.17-0.85,5.66-2.34c1.49-1.49,2.35-3.55,2.35-5.66c0-2.1-0.859-4.16-2.35-5.66   C188.997,297.264,186.938,296.403,184.827,296.403z" fill="#ffffff"/><path d="M160.229,152.677c0,22.114,17.99,40.104,40.104,40.104s40.104-17.991,40.104-40.104c0-22.113-17.991-40.104-40.104-40.104   S160.229,130.563,160.229,152.677z M200.333,176.781c-10.487,0-19.426-6.734-22.733-16.104h45.467   C219.76,170.047,210.82,176.781,200.333,176.781z M223.067,144.677H177.6c3.307-9.369,12.246-16.104,22.733-16.104   S219.76,135.308,223.067,144.677z" fill="#ffffff"/><path d="M128.833,312.976v-87.715c0-4.418-3.582-8-8-8H64.708c-4.418,0-8,3.582-8,8v87.72c-4.311,0.123-7.771,3.647-7.771,7.988   c0,4.418,3.582,8,8,8h7.771h56.125h7.854c4.418,0,8-3.582,8-8C136.688,316.6,133.183,313.055,128.833,312.976z M112.833,233.261v16   H72.708v-16H112.833z M72.708,312.969v-47.708h40.125v47.708H72.708z" fill="#ffffff"/><path d="M272.729,328.969h7.813h56.125h7.813c4.418,0,8-3.582,8-8c0-4.355-3.482-7.89-7.813-7.991v-87.717c0-4.418-3.582-8-8-8   h-56.125c-4.418,0-8,3.582-8,8v87.717c-4.331,0.101-7.813,3.636-7.813,7.991C264.729,325.387,268.312,328.969,272.729,328.969z    M288.542,312.969v-47.708h40.125v47.708H288.542z M328.667,233.261v16h-40.125v-16H328.667z" fill="#ffffff"/></g><path d="M362.606,177.661h-22.329v-31.755c0-10.11-8.803-18.682-26.164-25.478c-14.025-5.49-33.679-9.923-56.838-12.819  c-4.373-0.55-8.382,2.56-8.931,6.945c-0.548,4.384,2.561,8.382,6.945,8.931c21.86,2.734,40.184,6.829,52.991,11.842  c13.282,5.199,15.997,9.667,15.997,10.579c0,1.555-6.182,9.348-34.74,16.329c-25.733,6.29-60.076,9.754-96.702,9.754  c-36.625,0-70.966-3.464-96.699-9.754c-28.558-6.98-34.739-14.773-34.739-16.329c0-1.5,5.199-8.49,30.634-15.28  c20.968-5.598,48.973-9.246,79.568-10.404c-0.791,4.123-2.323,7.75-4.604,10.294c-2.95,3.289-2.675,8.347,0.614,11.297  c3.289,2.95,8.348,2.676,11.297-0.614c13.308-14.838,11.118-42.279,0.829-57.628c-5.065-7.551-7.259-18.888-5.46-28.21  c0.837-4.338-2.001-8.534-6.339-9.371c-4.337-0.838-8.534,2.001-9.371,6.339c-2.586,13.399,0.508,29.161,7.881,40.153  c2.267,3.381,3.872,7.467,4.807,11.743c-31.866,1.195-61.211,5.034-83.349,10.943c-28.603,7.636-42.507,17.691-42.507,30.739v31.755  H23.067C10.348,177.661,0,188.009,0,200.727c0,12.718,10.348,23.064,23.067,23.064h22.331v52.693  c0,34.928,28.415,63.343,63.342,63.343h168.191c34.929,0,63.346-28.416,63.346-63.343v-52.693h22.329  c12.717,0,23.063-10.347,23.063-23.065C385.67,188.008,375.324,177.661,362.606,177.661z M45.398,207.791H23.067  c-3.897,0-7.067-3.169-7.067-7.065c0-3.896,3.17-7.064,7.067-7.064h22.331V207.791z M324.277,276.484  c0,26.105-21.239,47.343-47.346,47.343H108.74c-26.104,0-47.342-21.238-47.342-47.343V166.643  c7.618,4.239,17.943,7.958,30.94,11.134c26.94,6.585,62.63,10.211,100.498,10.211c37.869,0,73.56-3.626,100.5-10.211  c12.998-3.177,23.322-6.896,30.941-11.134V276.484z M362.606,207.791h-22.329v-14.13h22.329c3.895,0,7.063,3.169,7.063,7.065  C369.67,204.622,366.501,207.791,362.606,207.791z M206.23,92.481c-7.374-11-10.468-26.762-7.881-40.154  c0.837-4.338,5.034-7.174,9.372-6.338c4.338,0.838,7.176,5.034,6.338,9.372c-1.799,9.316,0.396,20.654,5.461,28.211  c10.288,15.347,12.478,42.788-0.83,57.628c-1.58,1.762-3.765,2.659-5.959,2.659c-1.902,0-3.811-0.674-5.338-2.044  c-3.29-2.95-3.565-8.007-0.615-11.297C213.984,122.483,213.712,103.642,206.23,92.481z" transform="matrix(0.10371561348438263 0 0 0.10371561348438263 155 330)" id="L1_116" fill="#ffffff"/><g transform="matrix(0.04375821724534035 0 0 0.04375821724534035 252.5 340)" id="L1_117"><path d="M93.698,331.514c-8.492,0-16.476,3.307-22.481,9.311c-6.005,6.005-9.311,13.988-9.311,22.48   c0,8.493,3.307,16.476,9.311,22.48c6.005,6.005,13.988,9.312,22.481,9.312s16.476-3.307,22.48-9.312   c6.005-6.005,9.312-13.988,9.312-22.481c0-8.492-3.307-16.476-9.312-22.48C110.174,334.821,102.19,331.514,93.698,331.514z    M102.036,371.645c-2.227,2.227-5.188,3.454-8.338,3.454c-3.149,0-6.111-1.227-8.338-3.454c-2.228-2.227-3.454-5.188-3.454-8.338   c0-3.15,1.227-6.111,3.454-8.338v0c2.227-2.227,5.188-3.454,8.338-3.454c3.149,0,6.111,1.227,8.338,3.454   c2.228,2.227,3.454,5.188,3.454,8.338C105.49,366.456,104.263,369.417,102.036,371.645z" fill="#ffffff"/><path d="M448.054,143.913c-1.521-2.173-3.843-3.652-6.455-4.113c-2.613-0.46-5.301,0.135-7.472,1.657l-2.523,1.767l-1.559-2.225   c-3.835-5.478-9.574-9.135-16.16-10.296c-6.586-1.163-13.229,0.311-18.707,4.147L223.455,255.09   c-11.308,7.918-14.065,23.56-6.147,34.868l1.558,2.225l-58.272,40.804c-5.36-11.88-13.831-22.147-24.786-29.818   c-3.745-2.623-7.69-4.873-11.807-6.738l40.742-58.186l2.226,1.558c5.479,3.836,12.124,5.307,18.707,4.147   c6.587-1.161,12.326-4.818,16.161-10.295l120.24-171.721c7.918-11.309,5.16-26.951-6.148-34.868l-2.226-1.559l1.767-2.523   c3.168-4.524,2.068-10.759-2.455-13.927c-10.913-7.641-24.148-10.576-37.27-8.263c-13.121,2.313-24.555,9.598-32.196,20.511   L33.56,321.197c-13.844,19.771-16.558,44.063-9.463,65.376L9.584,401.086c-12.778,12.778-12.778,33.57,0,46.348   c6.189,6.19,14.42,9.599,23.174,9.599s16.984-3.409,23.174-9.599l14.492-14.493c22.394,7.473,47.166,3.633,66.223-10.089   l299.158-209.473C458.334,197.605,463.828,166.442,448.054,143.913z M304.457,43.449c2.274,1.593,2.829,4.739,1.236,7.014   l-120.24,171.721c-1.041,1.486-2.483,1.935-3.251,2.07c-0.766,0.135-2.275,0.207-3.764-0.834l-2.225-1.558L302.23,41.89   L304.457,43.449z M41.789,433.293c-2.412,2.412-5.619,3.741-9.031,3.741s-6.619-1.329-9.031-3.741c-4.98-4.98-4.98-13.083,0-18.063   l9.823-9.823c4.779,6.844,10.814,12.979,18.04,18.038c0.01,0.007,0.018,0.013,0.028,0.02L41.789,433.293z M137.452,393.943   c-3.511,5.014-7.733,9.241-12.437,12.638l-0.572,0.401c-0.09,0.062-0.177,0.126-0.263,0.19   c-15.03,10.419-34.715,12.554-51.792,5.119c-0.24-0.119-0.483-0.227-0.73-0.325c-2.96-1.342-5.84-2.976-8.597-4.906   c-24.126-16.894-30.01-50.266-13.117-74.392L259.93,32.777c4.577-6.537,11.427-10.901,19.286-12.287   c4.451-0.784,8.924-0.561,13.154,0.611L154.131,218.53c-0.012,0.017-0.024,0.034-0.036,0.051c-0.012,0.017-0.024,0.035-0.036,0.052   l-54.058,77.203c-1.903,2.718-2.334,6.204-1.15,9.304c1.184,3.1,3.828,5.411,7.06,6.168c6.635,1.555,12.834,4.329,18.426,8.244   c10.69,7.486,18.13,18.371,21.217,30.928c0.068,0.412,0.164,0.822,0.286,1.226c0.17,0.769,0.324,1.545,0.462,2.325   C148.778,368.082,145.636,382.256,137.452,393.943z M234.927,271.473l171.723-120.241c1.035-0.725,2.081-0.91,2.88-0.91   c0.348,0,0.65,0.035,0.882,0.076c0.768,0.136,2.21,0.585,3.251,2.071l1.559,2.226L235.249,280.712l-1.559-2.225   C232.097,276.212,232.653,273.066,234.927,271.473z M424.334,196.996L165.639,378.135c1.663-8.079,1.949-16.45,0.791-24.821   l72.069-50.463c0.01-0.007,0.018-0.014,0.028-0.02c0.011-0.007,0.021-0.014,0.03-0.021l197.438-138.247   C439.258,176.407,434.957,189.557,424.334,196.996z" fill="#ffffff"/></g><path d="M429.239,54.954c-1.548-3.736-5.194-6.173-9.239-6.173h-38.781V10c0-4.045-2.436-7.691-6.173-9.239  c-3.738-1.546-8.038-0.691-10.898,2.168l-39.168,39.168c-1.875,1.876-2.929,4.419-2.929,7.071v44.639l-32.853,32.853  C257.37,98.238,216.722,82.69,173.655,82.69c-46.421,0-90.039,18.054-122.82,50.835C18.054,166.306,0,209.924,0,256.345  s18.054,90.039,50.835,122.82C83.616,411.946,127.234,430,173.655,430s90.039-18.054,122.82-50.835  c32.781-32.781,50.835-76.399,50.835-122.82c0-43.067-15.549-83.715-43.971-115.542l32.854-32.854h44.638  c2.652,0,5.196-1.054,7.071-2.929l39.169-39.168C429.931,62.992,430.787,58.691,429.239,54.954z M342.05,53.311l19.168-19.169  v20.497L342.05,73.807V53.311z M327.31,256.345C327.31,341.07,258.381,410,173.655,410S20,341.07,20,256.345  S88.93,102.69,173.655,102.69c38.772,0,74.23,14.441,101.294,38.219l-24.486,24.486c-20.752-17.552-47.563-28.154-76.807-28.154  c-65.674,0-119.104,53.43-119.104,119.104c0,65.674,53.43,119.103,119.104,119.103c65.674,0,119.104-53.43,119.104-119.103  c0-29.244-10.601-56.055-28.154-76.807l24.486-24.486C312.869,182.115,327.31,217.573,327.31,256.345z M218.207,256.345  c0,24.566-19.986,44.552-44.552,44.552c-24.566,0-44.552-19.985-44.552-44.552s19.986-44.552,44.552-44.552  c8.669,0,16.761,2.497,23.612,6.797l-30.683,30.683c-3.905,3.905-3.905,10.237,0,14.143c1.953,1.952,4.512,2.929,7.071,2.929  c2.559,0,5.119-0.977,7.071-2.929l30.683-30.683C215.71,239.584,218.207,247.676,218.207,256.345z M211.651,204.206  c-10.668-7.796-23.801-12.413-37.996-12.413c-35.594,0-64.552,28.958-64.552,64.552c0,35.594,28.958,64.552,64.552,64.552  c35.594,0,64.552-28.958,64.552-64.552c0-14.196-4.617-27.328-12.413-37.996l24.618-24.618  c13.96,17.081,22.346,38.886,22.346,62.615c0,54.646-44.457,99.103-99.104,99.103s-99.104-44.458-99.104-99.103  s44.458-99.104,99.104-99.104c23.729,0,45.534,8.387,62.615,22.346L211.651,204.206z M376.689,87.949h-20.496l19.168-19.168h20.496  L376.689,87.949z" transform="matrix(0.09302325546741486 0 0 0.09302325546741486 242.5 67.5)" id="L1_118" fill="#ffffff"/><g transform="matrix(0.15837104618549347 0 0 0.15837104618549347 315 140)" id="L1_119"><path d="M341,128.36h-10v-12.5c5.523,0,10-4.478,10-10c0-5.522-4.477-10-10-10v-22.5c0-5.522-4.477-10-10-10h-50   c-5.523,0-10,4.477-10,10v22.5c-5.523,0-10,4.478-10,10c0,5.522,4.477,10,10,10v12.5h-10c-5.523,0-10,4.478-10,10v275   c0,21.139,29.628,28.64,55,28.64c25.372,0,55-7.501,55-28.64v-275C351,132.838,346.523,128.36,341,128.36z M281,83.36h30v12.5h-30   V83.36z M281,115.86h30v12.5h-30V115.86z M296,422c-22.544,0-34.177-6.204-35-8.64v-265h70l0.007,264.968   C330.177,415.796,318.544,422,296,422z" fill="#ffffff"/><path d="M191,218.36h-35v-94.5h20c5.523,0,10-4.478,10-10c0-5.522-4.477-10-10-10h-20v-5.965h15c5.523,0,10-4.478,10-10   s-4.477-10-10-10h-15v-5.965h10c5.523,0,10-4.478,10-10c0-5.522-4.477-10-10-10h-10v-5.966h5c5.523,0,10-4.478,10-10   c0-5.522-4.477-10-10-10h-5V20c5.523,0,10-4.477,10-10s-4.477-10-10-10h-20c-5.523,0-10,4.477-10,10s4.477,10,10,10v5.965h-5   c-5.523,0-10,4.478-10,10c0,5.522,4.477,10,10,10h5v5.966h-10c-5.523,0-10,4.478-10,10c0,5.522,4.477,10,10,10h10v5.965h-15   c-5.523,0-10,4.478-10,10s4.477,10,10,10h15v5.965h-20c-5.523,0-10,4.478-10,10c0,5.522,4.477,10,10,10h20v94.5h-35   c-5.523,0-10,4.478-10,10v185c0,21.139,29.628,28.64,55,28.64c25.372,0,55-7.501,55-28.64v-185   C201,222.838,196.523,218.36,191,218.36z M146,422c-22.544,0-34.177-6.204-35-8.64v-175h70l0.007,174.968   C180.177,415.796,168.544,422,146,422z" fill="#ffffff"/></g><g transform="matrix(0.1538448376377967 -0.04122260000474481 0.04122260000474481 0.1538448376377967 132.1442331799718 150.24988487917682)" id="L1_120"><path d="M387.917,423.53V15.955c4.022-0.421,7.158-3.821,7.158-7.955c0-4.418-3.582-8-8-8H52.425c-4.418,0-8,3.582-8,8   c0,4.331,3.444,7.849,7.741,7.987V423.5c-4.418,0-8,3.582-8,8s3.582,8,8,8h335.167c4.418,0,8-3.582,8-8   C395.333,427.278,392.061,423.829,387.917,423.53z M68.167,16h303.75v407.5H164v-95.917c0-4.418-3.582-8-8-8H92.375   c-4.418,0-8,3.582-8,8V423.5H68.167V16z M100.375,383.351c1.976-0.095,3.881-0.92,5.282-2.321c1.489-1.49,2.34-3.55,2.34-5.65   c0-2.11-0.851-4.17-2.34-5.66c-1.401-1.4-3.307-2.226-5.282-2.321v-31.815H148V423.5h-47.625V383.351z" fill="#ffffff"/><path d="M188.5,391.25h64c4.418,0,8-3.582,8-8v-55.667c0-4.418-3.582-8-8-8h-64c-4.418,0-8,3.582-8,8v55.667   C180.5,387.668,184.082,391.25,188.5,391.25z M244.5,375.25h-16v-39.667h16V375.25z M196.5,335.583h16v39.667h-16V335.583z" fill="#ffffff"/><path d="M284.75,391.25h64c4.418,0,8-3.582,8-8v-55.667c0-4.418-3.582-8-8-8h-64c-4.418,0-8,3.582-8,8v55.667   C276.75,387.668,280.332,391.25,284.75,391.25z M340.75,375.25h-16v-39.667h16V375.25z M292.75,335.583h16v39.667h-16V335.583z" fill="#ffffff"/><path d="M188.5,295.25h64c4.418,0,8-3.582,8-8v-55.667c0-4.418-3.582-8-8-8h-64c-4.418,0-8,3.582-8,8v55.667   C180.5,291.668,184.082,295.25,188.5,295.25z M244.5,279.25h-16v-39.667h16V279.25z M196.5,239.583h16v39.667h-16V239.583z" fill="#ffffff"/><path d="M92.187,295.25h64c4.418,0,8-3.582,8-8v-55.667c0-4.418-3.582-8-8-8h-64c-4.418,0-8,3.582-8,8v55.667   C84.187,291.668,87.769,295.25,92.187,295.25z M148.187,279.25h-16v-39.667h16V279.25z M100.187,239.583h16v39.667h-16V239.583z" fill="#ffffff"/><path d="M284.75,295.25h64c4.418,0,8-3.582,8-8v-55.667c0-4.418-3.582-8-8-8h-64c-4.418,0-8,3.582-8,8v55.667   C276.75,291.668,280.332,295.25,284.75,295.25z M340.75,279.25h-16v-39.667h16V279.25z M292.75,239.583h16v39.667h-16V239.583z" fill="#ffffff"/><path d="M188.5,199.583h64c4.418,0,8-3.582,8-8v-55.667c0-4.418-3.582-8-8-8h-64c-4.418,0-8,3.582-8,8v55.667   C180.5,196.002,184.082,199.583,188.5,199.583z M244.5,183.583h-16v-39.667h16V183.583z M196.5,143.917h16v39.667h-16V143.917z" fill="#ffffff"/><path d="M92.187,199.583h64c4.418,0,8-3.582,8-8v-55.667c0-4.418-3.582-8-8-8h-64c-4.418,0-8,3.582-8,8v55.667   C84.187,196.002,87.769,199.583,92.187,199.583z M148.187,183.583h-16v-39.667h16V183.583z M100.187,143.917h16v39.667h-16V143.917   z" fill="#ffffff"/><path d="M284.75,199.583h64c4.418,0,8-3.582,8-8v-55.667c0-4.418-3.582-8-8-8h-64c-4.418,0-8,3.582-8,8v55.667   C276.75,196.002,280.332,199.583,284.75,199.583z M340.75,183.583h-16v-39.667h16V183.583z M292.75,143.917h16v39.667h-16V143.917z   " fill="#ffffff"/><path d="M188.5,103.583h64c4.418,0,8-3.582,8-8V39.917c0-4.418-3.582-8-8-8h-64c-4.418,0-8,3.582-8,8v55.667   C180.5,100.001,184.082,103.583,188.5,103.583z M244.5,87.583h-16V47.917h16V87.583z M196.5,47.917h16v39.667h-16V47.917z" fill="#ffffff"/><path d="M92.187,103.583h64c4.418,0,8-3.582,8-8V39.917c0-4.418-3.582-8-8-8h-64c-4.418,0-8,3.582-8,8v55.667   C84.187,100.001,87.769,103.583,92.187,103.583z M148.187,87.583h-16V47.917h16V87.583z M100.187,47.917h16v39.667h-16V47.917z" fill="#ffffff"/><path d="M284.75,103.583h64c4.418,0,8-3.582,8-8V39.917c0-4.418-3.582-8-8-8h-64c-4.418,0-8,3.582-8,8v55.667   C276.75,100.001,280.332,103.583,284.75,103.583z M340.75,87.583h-16V47.917h16V87.583z M292.75,47.917h16v39.667h-16V47.917z" fill="#ffffff"/></g><g transform="matrix(0.11313547939062119 0 0 0.11313547939062119 62.5 236.5)" id="L1_121"><path d="M55.237,336.353c3.905-3.905,3.905-10.237,0-14.143c-3.905-3.904-10.237-3.904-14.143,0L2.929,360.377   c-3.905,3.905-3.905,10.237,0,14.143c1.952,1.952,4.512,2.929,7.071,2.929s5.119-0.977,7.071-2.929L55.237,336.353z" fill="#ffffff"/><path d="M306.916,68.629c-8.868,8.869-13.752,20.66-13.752,33.201c0,12.542,4.884,24.333,13.752,33.201   c9.153,9.153,21.177,13.729,33.201,13.729s24.047-4.576,33.2-13.729c8.869-8.868,13.752-20.659,13.752-33.201   c0-12.541-4.884-24.332-13.752-33.201C355.011,50.323,325.224,50.323,306.916,68.629z M359.175,120.889   c-10.509,10.511-27.607,10.51-38.117,0c-5.091-5.091-7.894-11.858-7.894-19.059c0-7.199,2.804-13.968,7.894-19.059   c5.255-5.255,12.156-7.882,19.059-7.882c6.901,0,13.805,2.628,19.058,7.882c5.091,5.091,7.895,11.859,7.895,19.059   C367.07,109.031,364.266,115.798,359.175,120.889z" fill="#ffffff"/><path d="M86.775,353.748c-3.905-3.904-10.237-3.904-14.142,0l-53.536,53.537c-3.905,3.905-3.905,10.237,0,14.143   c1.953,1.952,4.512,2.929,7.071,2.929s5.119-0.977,7.071-2.929l53.536-53.537C90.68,363.985,90.68,357.653,86.775,353.748z" fill="#ffffff"/><path d="M435.581,13.329c-0.938-3.382-3.581-6.023-6.961-6.962c-36.445-10.115-75.921-8.147-114.161,5.688   c-29.631,10.721-58.449,28.693-79.065,49.31l-31.096,31.096L91.644,110.058c-2.094,0.327-4.029,1.311-5.528,2.809l-72.051,72.051   c-2.806,2.807-3.688,7.006-2.247,10.703c1.441,3.697,4.933,6.192,8.897,6.359l71.073,2.989l-17.813,17.813   c-3.905,3.905-3.905,10.237,0,14.143l10.397,10.396L53.319,294.92c-2.584,3.961-2.041,9.19,1.304,12.535l79.871,79.87   c3.345,3.344,8.574,3.89,12.536,1.304l47.597-31.054l10.397,10.397c3.905,3.904,10.237,3.904,14.143,0l17.813-17.813l2.989,71.071   c0.167,3.965,2.662,7.456,6.359,8.897c1.18,0.46,2.41,0.683,3.63,0.683c2.604,0,5.162-1.019,7.073-2.929l72.051-72.051   c1.499-1.499,2.482-3.435,2.81-5.528l17.598-112.653l31.095-31.096c20.616-20.616,38.589-49.434,49.31-79.064   C443.728,89.25,445.695,49.773,435.581,13.329z M142.898,367.444L74.504,299.05l24.321-37.278l33.604,33.604l-3.952,3.952   c-3.906,3.905-3.906,10.237,0,14.143c3.905,3.904,10.237,3.904,14.143,0l3.952-3.952l33.604,33.604L142.898,367.444z    M366.441,192.412l-33.401,33.402c-0.004,0.004-0.008,0.008-0.012,0.012l-34.754,34.754c-3.905,3.905-3.905,10.237,0,14.143   c3.905,3.904,10.237,3.904,14.143,0l13.082-13.082l-12.865,82.354l-53.64,53.641l-2.804-66.686l27.943-27.943   c3.905-3.905,3.905-10.237,0-14.143c-3.905-3.904-10.237-3.904-14.143,0l-31.021,31.021c-0.017,0.017-0.033,0.033-0.05,0.05   l-26.824,26.823l-8.917-8.917c-0.102-0.105-0.204-0.208-0.31-0.309l-42.155-42.156l120.945-120.944   c3.905-3.905,3.906-10.237,0-14.143c-3.904-3.903-10.236-3.904-14.142,0L146.571,281.235l-42.157-42.157   c-0.1-0.104-0.202-0.206-0.307-0.307l-8.917-8.918l26.824-26.824c0.017-0.016,0.033-0.032,0.049-0.049l31.021-31.021   c3.906-3.905,3.906-10.237,0-14.143c-3.904-3.904-10.237-3.904-14.142,0l-27.943,27.943l-66.686-2.805l53.64-53.64l82.354-12.864   l-13.082,13.081l14.142,14.143l34.649-34.649c0.075-0.073,0.15-0.147,0.223-0.223l33.296-33.296   c27.828-27.827,93.904-69.058,168.203-51.297C435.499,98.509,394.268,164.586,366.441,192.412z" fill="#ffffff"/><path d="M105.595,386.711l-38.166,38.166c-3.905,3.905-3.905,10.237,0,14.143c1.953,1.952,4.512,2.929,7.071,2.929   s5.119-0.977,7.071-2.929l38.166-38.166c3.905-3.905,3.905-10.237,0-14.143C115.833,382.806,109.501,382.806,105.595,386.711z" fill="#ffffff"/></g><g transform="matrix(0.09049773961305618 0 0 0.09049773961305618 67.5 67.49999967963447)" id="L1_122"><path d="M242.922,312.686h-43.844c-5.523,0-10,4.477-10,10s4.477,10,10,10h43.844c5.523,0,10-4.477,10-10   S248.445,312.686,242.922,312.686z" fill="#ffffff"/><path d="M441.978,353.323c-0.006-0.139-0.009-0.278-0.021-0.417c-0.024-0.285-0.064-0.564-0.111-0.842   c-0.013-0.078-0.02-0.156-0.036-0.234c-0.074-0.377-0.167-0.747-0.282-1.107c0-0.001-0.001-0.003-0.001-0.005l-21.795-68.314   V70.619c0-20.354-16.559-36.913-36.913-36.913H59.182c-20.354,0-36.914,16.559-36.914,36.913v211.786L0.473,350.718   c0,0.001-0.001,0.003-0.001,0.005c-0.115,0.361-0.208,0.73-0.282,1.107c-0.015,0.078-0.022,0.156-0.036,0.234   c-0.047,0.277-0.087,0.557-0.111,0.842c-0.012,0.139-0.015,0.278-0.021,0.417C0.016,353.468,0,353.611,0,353.758v44.537   c0,5.523,4.477,10,10,10h422c5.523,0,10-4.477,10-10v-44.537C442,353.611,441.984,353.468,441.978,353.323z M399.731,273.961   H42.269v-24.537h357.463V273.961z M39.575,293.961h362.851l15.888,49.797H23.687L39.575,293.961z M59.182,53.706h323.636   c9.326,0,16.913,7.587,16.913,16.913v158.806H42.269V70.619C42.269,61.292,49.856,53.706,59.182,53.706z M422,388.294H20v-24.537   h402V388.294z" fill="#ffffff"/></g><g transform="matrix(0.20361991226673126 0 0 0.20361991226673126 217.5 216.50000144164483)" id="L1_123"><path d="M343.465,330.879c-5.523,0-10-4.477-10-10s4.477-10,10-10c18.491,0,33.535-15.044,33.535-33.535c0-5.523,4.477-10,10-10   s10,4.477,10,10C397,306.864,372.984,330.879,343.465,330.879z" fill="#ebebeb"/><path d="M343.465,375.879c-13.297,0-26.203-2.606-38.357-7.748c-5.086-2.151-7.466-8.019-5.314-13.105   c2.151-5.086,8.017-7.466,13.105-5.314c9.676,4.092,19.96,6.167,30.566,6.167c43.304,0,78.535-35.23,78.535-78.535   c0-39.394-50.625-134.031-78.511-181.675c-8.458,14.488-22.08,38.452-35.566,64.835c-2.514,4.917-8.538,6.865-13.456,4.353   c-4.917-2.514-6.866-8.538-4.353-13.456c22.111-43.255,44.593-80.127,44.818-80.494c1.816-2.973,5.049-4.786,8.533-4.786   s6.716,1.813,8.533,4.786C355.673,76.92,442,218.859,442,277.344C442,331.677,397.797,375.879,343.465,375.879z" fill="#ebebeb"/><path d="M221,330.879c-5.523,0-10-4.477-10-10s4.477-10,10-10c18.491,0,33.535-15.044,33.535-33.535c0-5.523,4.477-10,10-10   s10,4.477,10,10C274.535,306.864,250.52,330.879,221,330.879z" fill="#ebebeb"/><path d="M221,375.879c-13.921,0-27.382-2.848-40.008-8.464c-5.046-2.245-7.317-8.155-5.073-13.201   c2.244-5.047,8.155-7.318,13.201-5.073c10.052,4.471,20.778,6.738,31.88,6.738c43.304,0,78.535-35.23,78.535-78.535   c0-39.394-50.625-134.031-78.511-181.675c-8.458,14.488-22.08,38.451-35.565,64.834c-2.514,4.918-8.538,6.867-13.456,4.353   c-4.918-2.514-6.867-8.538-4.353-13.456c22.11-43.255,44.593-80.127,44.817-80.495c1.816-2.973,5.049-4.786,8.533-4.786   s6.716,1.813,8.533,4.786c3.675,6.014,90.002,147.953,90.002,206.438C319.535,331.677,275.333,375.879,221,375.879z" fill="#ebebeb"/><path d="M98.535,375.879C44.203,375.879,0,331.677,0,277.344C0,218.859,86.327,76.92,90.002,70.906   c1.816-2.973,5.049-4.786,8.533-4.786s6.716,1.813,8.533,4.786c3.675,6.014,90.003,147.953,90.003,206.438   C197.071,331.677,152.868,375.879,98.535,375.879z M98.536,95.627C70.655,143.256,20,237.938,20,277.344   c0,43.305,35.231,78.535,78.535,78.535c43.305,0,78.536-35.23,78.536-78.535C177.071,237.922,126.418,143.252,98.536,95.627z" fill="#ebebeb"/><path d="M98.535,330.879c-5.523,0-10-4.477-10-10s4.477-10,10-10c18.492,0,33.536-15.044,33.536-33.535c0-5.523,4.477-10,10-10   s10,4.477,10,10C152.071,306.864,128.055,330.879,98.535,330.879z" fill="#ebebeb"/></g></defs><g fi:class="KUsePattern"><pattern id="pattern_L1_114" width="350" height="350" patternUnits="userSpaceOnUse"><use xlink:href="#L1_114" x="-350" y="-350"/><use xlink:href="#L1_114" x="0" y="-350"/><use xlink:href="#L1_114" x="350" y="-350"/><use xlink:href="#L1_114" x="-350" y="0"/><use xlink:href="#L1_114" x="0" y="0"/><use xlink:href="#L1_114" x="350" y="0"/><use xlink:href="#L1_114" x="-350" y="350"/><use xlink:href="#L1_114" x="0" y="350"/><use xlink:href="#L1_114" x="350" y="350"/></pattern><rect x="0" y="0" width="100%" height="100%" fill="url(#pattern_L1_114)"/></g><g fi:class="KUsePattern"><pattern id="pattern_L1_115" width="350" height="350" patternUnits="userSpaceOnUse"><use xlink:href="#L1_115" x="-350" y="-350"/><use xlink:href="#L1_115" x="0" y="-350"/><use xlink:href="#L1_115" x="350" y="-350"/><use xlink:href="#L1_115" x="-350" y="0"/><use xlink:href="#L1_115" x="0" y="0"/><use xlink:href="#L1_115" x="350" y="0"/><use xlink:href="#L1_115" x="-350" y="350"/><use xlink:href="#L1_115" x="0" y="350"/><use xlink:href="#L1_115" x="350" y="350"/></pattern><rect x="0" y="0" width="100%" height="100%" fill="url(#pattern_L1_115)"/></g><g fi:class="KUsePattern"><pattern id="pattern_L1_116" width="350" height="350" patternUnits="userSpaceOnUse"><use xlink:href="#L1_116" x="-350" y="-350"/><use xlink:href="#L1_116" x="0" y="-350"/><use xlink:href="#L1_116" x="350" y="-350"/><use xlink:href="#L1_116" x="-350" y="0"/><use xlink:href="#L1_116" x="0" y="0"/><use xlink:href="#L1_116" x="350" y="0"/><use xlink:href="#L1_116" x="-350" y="350"/><use xlink:href="#L1_116" x="0" y="350"/><use xlink:href="#L1_116" x="350" y="350"/></pattern><rect x="0" y="0" width="100%" height="100%" fill="url(#pattern_L1_116)"/></g><g fi:class="KUsePattern"><pattern id="pattern_L1_117" width="350" height="350" patternUnits="userSpaceOnUse"><use xlink:href="#L1_117" x="-350" y="-350"/><use xlink:href="#L1_117" x="0" y="-350"/><use xlink:href="#L1_117" x="350" y="-350"/><use xlink:href="#L1_117" x="-350" y="0"/><use xlink:href="#L1_117" x="0" y="0"/><use xlink:href="#L1_117" x="350" y="0"/><use xlink:href="#L1_117" x="-350" y="350"/><use xlink:href="#L1_117" x="0" y="350"/><use xlink:href="#L1_117" x="350" y="350"/></pattern><rect x="0" y="0" width="100%" height="100%" fill="url(#pattern_L1_117)"/></g><g fi:class="KUsePattern"><pattern id="pattern_L1_118" width="350" height="350" patternUnits="userSpaceOnUse"><use xlink:href="#L1_118" x="-350" y="-350"/><use xlink:href="#L1_118" x="0" y="-350"/><use xlink:href="#L1_118" x="350" y="-350"/><use xlink:href="#L1_118" x="-350" y="0"/><use xlink:href="#L1_118" x="0" y="0"/><use xlink:href="#L1_118" x="350" y="0"/><use xlink:href="#L1_118" x="-350" y="350"/><use xlink:href="#L1_118" x="0" y="350"/><use xlink:href="#L1_118" x="350" y="350"/></pattern><rect x="0" y="0" width="100%" height="100%" fill="url(#pattern_L1_118)"/></g><g fi:class="KUsePattern"><pattern id="pattern_L1_119" width="350" height="350" patternUnits="userSpaceOnUse"><use xlink:href="#L1_119" x="-350" y="-350"/><use xlink:href="#L1_119" x="0" y="-350"/><use xlink:href="#L1_119" x="350" y="-350"/><use xlink:href="#L1_119" x="-350" y="0"/><use xlink:href="#L1_119" x="0" y="0"/><use xlink:href="#L1_119" x="350" y="0"/><use xlink:href="#L1_119" x="-350" y="350"/><use xlink:href="#L1_119" x="0" y="350"/><use xlink:href="#L1_119" x="350" y="350"/></pattern><rect x="0" y="0" width="100%" height="100%" fill="url(#pattern_L1_119)"/></g><g fi:class="KUsePattern"><pattern id="pattern_L1_120" width="350" height="350" patternUnits="userSpaceOnUse"><use xlink:href="#L1_120" x="-350" y="-350"/><use xlink:href="#L1_120" x="0" y="-350"/><use xlink:href="#L1_120" x="350" y="-350"/><use xlink:href="#L1_120" x="-350" y="0"/><use xlink:href="#L1_120" x="0" y="0"/><use xlink:href="#L1_120" x="350" y="0"/><use xlink:href="#L1_120" x="-350" y="350"/><use xlink:href="#L1_120" x="0" y="350"/><use xlink:href="#L1_120" x="350" y="350"/></pattern><rect x="0" y="0" width="100%" height="100%" fill="url(#pattern_L1_120)"/></g><g fi:class="KUsePattern"><pattern id="pattern_L1_121" width="350" height="350" patternUnits="userSpaceOnUse"><use xlink:href="#L1_121" x="-350" y="-350"/><use xlink:href="#L1_121" x="0" y="-350"/><use xlink:href="#L1_121" x="350" y="-350"/><use xlink:href="#L1_121" x="-350" y="0"/><use xlink:href="#L1_121" x="0" y="0"/><use xlink:href="#L1_121" x="350" y="0"/><use xlink:href="#L1_121" x="-350" y="350"/><use xlink:href="#L1_121" x="0" y="350"/><use xlink:href="#L1_121" x="350" y="350"/></pattern><rect x="0" y="0" width="100%" height="100%" fill="url(#pattern_L1_121)"/></g><g fi:class="KUsePattern"><pattern id="pattern_L1_122" width="350" height="350" patternUnits="userSpaceOnUse"><use xlink:href="#L1_122" x="-350" y="-350"/><use xlink:href="#L1_122" x="0" y="-350"/><use xlink:href="#L1_122" x="350" y="-350"/><use xlink:href="#L1_122" x="-350" y="0"/><use xlink:href="#L1_122" x="0" y="0"/><use xlink:href="#L1_122" x="350" y="0"/><use xlink:href="#L1_122" x="-350" y="350"/><use xlink:href="#L1_122" x="0" y="350"/><use xlink:href="#L1_122" x="350" y="350"/></pattern><rect x="0" y="0" width="100%" height="100%" fill="url(#pattern_L1_122)"/></g><g fi:class="KUsePattern"><pattern id="pattern_L1_123" width="350" height="350" patternUnits="userSpaceOnUse"><use xlink:href="#L1_123" x="-350" y="-350"/><use xlink:href="#L1_123" x="0" y="-350"/><use xlink:href="#L1_123" x="350" y="-350"/><use xlink:href="#L1_123" x="-350" y="0"/><use xlink:href="#L1_123" x="0" y="0"/><use xlink:href="#L1_123" x="350" y="0"/><use xlink:href="#L1_123" x="-350" y="350"/><use xlink:href="#L1_123" x="0" y="350"/><use xlink:href="#L1_123" x="350" y="350"/></pattern><rect x="0" y="0" width="100%" height="100%" fill="url(#pattern_L1_123)"/></g></svg>