<svg width="449" height="449" viewBox="0 0 449 449" fill="none" xmlns="http://www.w3.org/2000/svg">
<path d="M3 340L340 3" stroke="white" stroke-width="8"/>
<path d="M109 446L446 109" stroke="white" stroke-width="8"/>
<path d="M205.549 175.793L273.207 243.451" stroke="white" stroke-width="8"/>
<path d="M245.985 140.643L238.849 209.094L309.15 203.808" stroke="white" stroke-width="8"/>
<path d="M201.568 306.545L138.667 243.644L158.309 224.002C191.288 191.023 254.189 253.923 221.21 286.903L201.568 306.545Z" stroke="white" stroke-width="8"/>
<path fill-rule="evenodd" clip-rule="evenodd" d="M192.785 412.02C191.223 413.582 191.223 416.115 192.785 417.677L217.922 442.814C221.046 445.938 226.111 445.938 229.235 442.814L442.814 229.235C445.938 226.111 445.938 221.046 442.814 217.922L417.677 192.785C416.115 191.223 413.582 191.223 412.02 192.785C410.458 194.347 410.458 196.88 412.02 198.442L431.5 217.922C434.624 221.046 434.624 226.111 431.5 229.235L229.235 431.5C226.111 434.624 221.046 434.624 217.922 431.5L198.442 412.02C196.88 410.458 194.347 410.458 192.785 412.02ZM255.75 36.5144C257.312 34.9523 257.312 32.4196 255.75 30.8575L229.235 4.34314C226.111 1.21895 221.046 1.21895 217.922 4.34314L4.34313 217.922C1.21894 221.046 1.21894 226.111 4.34313 229.235L30.8575 255.75C32.4196 257.312 34.9523 257.312 36.5144 255.75C38.0765 254.188 38.0765 251.655 36.5144 250.093L15.6568 229.235C12.5326 226.111 12.5326 221.046 15.6568 217.922L217.922 15.6568C221.046 12.5327 226.111 12.5327 229.235 15.6568L250.093 36.5144C251.655 38.0765 254.188 38.0765 255.75 36.5144Z" fill="white"/>
</svg>
